# xmcd
#
# Track frame offsets: 
#        150
#        13673
#        28871
#        43116
#        56688
#        69431
#        82247
#        93657
#        106084
#        119103
#        132434
#        145468
#        160932
#        172995
#        182275
#        195012
#        208264
#        222947
#        236135
#        250671
#        262451
#        276787
#        288719
#        301953
#        315867
#
# Disc length: 4398 seconds
#
# Revision: 0
# Processed by: cddbd v1.5.1PL2 Copyright (c) Steve Scherf et al.
# Submitted via: ExactAudioCopy v0.95b4
#
DISCID=7b112c19
DTITLE=Red Foley - Hillbilly Fever [CD1)
DYEAR=1900
DGENRE=
TTITLE0=Single Life Is Good Enough For Me
TTITLE1=Lone Cowboy
TTITLE2=Echoes Of My Old Plantation Home
TTITLE3=I Don't Care Anymore
TTITLE4=Is It True
TTITLE5=Pals Of The Saddle
TTITLE6=Be Honest With Me
TTITLE7=Someday Somewhere Sweetheart
TTITLE8=Hang Your Head In Shame
TTITLE9=Smoke On The Water
TTITLE10=There's A Blue Star Shining Bright (In A Window Tonight)
TTITLE11=At Mail Call Today
TTITLE12=I'll Never Let You Worry My Mind
TTITLE13=Shame Shame On You
TTITLE14=Harriet
TTITLE15=Have I Told You Lately That I Love You
TTITLE16=Old Shep
TTITLE17=My Poor Little Heart Is Broken
TTITLE18=Never Trust A Woman
TTITLE19=A Smile Will Chase Away A Tear
TTITLE20=I'll Be True To You My Darling (Till The End Of Time)
TTITLE21=Rye Whiskey
TTITLE22=That's How Much I Love You
TTITLE23=Freight Train Boogie
TTITLE24=New Jolie Blonde
EXTD=
EXTT0=
EXTT1=
EXTT2=
EXTT3=
EXTT4=
EXTT5=
EXTT6=
EXTT7=
EXTT8=
EXTT9=
EXTT10=
EXTT11=
EXTT12=
EXTT13=
EXTT14=
EXTT15=
EXTT16=
EXTT17=
EXTT18=
EXTT19=
EXTT20=
EXTT21=
EXTT22=
EXTT23=
EXTT24=
PLAYORDER=
